<svg width="609" height="272" viewBox="0 0 609 272" fill="none" xmlns="http://www.w3.org/2000/svg">
<g filter="url(#filter0_d_259_1064)">
<path d="M567.291 114.964L567.722 116.917L569.919 116.433L569.181 114.308L567.291 114.964ZM529.318 123.334L527.444 124.033L528.052 125.661L529.749 125.287L529.318 123.334ZM522.184 111.179L520.683 112.5L520.691 112.51L522.184 111.179ZM511.77 103.111L510.874 104.899L510.874 104.899L511.77 103.111ZM498.776 99.4292L498.567 101.418L498.575 101.419L498.776 99.4292ZM461.661 112.519L463.098 113.911L463.106 113.902L461.661 112.519ZM450.153 135.783L452.115 136.169L452.116 136.164L450.153 135.783ZM464.102 199.072L462.484 200.248L462.491 200.257L464.102 199.072ZM484.354 215.063L483.659 216.938L484.354 215.063ZM522.994 211.364L522.009 209.623L522.003 209.627L522.994 211.364ZM533.244 203.014L534.768 204.31L534.775 204.302L534.781 204.293L533.244 203.014ZM539.484 191.73L537.592 191.081L537.589 191.092L537.585 191.103L539.484 191.73ZM541.376 178.04L540.954 176.085L539.317 176.438L539.377 178.112L541.376 178.04ZM579.388 169.844L581.378 169.65L581.161 167.415L578.966 167.889L579.388 169.844ZM577.216 195.05L575.284 194.532L575.283 194.537L577.216 195.05ZM565.976 218.709L567.604 219.87L567.605 219.869L565.976 218.709ZM545.664 237.913L546.757 239.588L546.763 239.584L545.664 237.913ZM471.336 248.387L470.733 250.294L470.736 250.295L471.336 248.387ZM434.998 223.76L433.472 225.052L433.476 225.057L434.998 223.76ZM413.406 124.973L415.331 125.517L413.406 124.973ZM436.216 87.4001L437.556 88.8843L437.561 88.8796L436.216 87.4001ZM505.547 65.3914L505.345 67.3812L505.349 67.3816L505.547 65.3914ZM531.832 72.8706L530.933 74.6574L530.942 74.6619L531.832 72.8706ZM552.93 89.4022L551.412 90.7046L551.42 90.7131L552.93 89.4022ZM566.861 113.011L528.888 121.381L529.749 125.287L567.722 116.917L566.861 113.011ZM531.192 122.635C529.34 117.673 526.842 113.4 523.678 109.848L520.691 112.51C523.485 115.645 525.743 119.474 527.444 124.033L531.192 122.635ZM523.686 109.858C520.528 106.268 516.852 103.418 512.665 101.322L510.874 104.899C514.589 106.759 517.856 109.287 520.683 112.5L523.686 109.858ZM512.665 101.322C508.482 99.2284 503.913 97.9388 498.978 97.4394L498.575 101.419C503.062 101.873 507.156 103.038 510.874 104.899L512.665 101.322ZM498.986 97.4402C494.096 96.9258 489.009 97.2613 483.736 98.4235L484.597 102.33C489.497 101.25 494.15 100.954 498.567 101.418L498.986 97.4402ZM483.736 98.4235C474.208 100.524 466.337 104.746 460.217 111.135L463.106 113.902C468.613 108.153 475.746 104.281 484.597 102.33L483.736 98.4235ZM460.225 111.127C454.089 117.458 450.098 125.583 448.189 135.401L452.116 136.164C453.9 126.987 457.581 119.602 463.097 113.911L460.225 111.127ZM448.19 135.397C446.265 145.176 446.726 156.34 449.482 168.84L453.388 167.979C450.716 155.857 450.323 145.269 452.115 136.169L448.19 135.397ZM449.482 168.84C452.311 181.678 456.622 192.178 462.484 200.248L465.72 197.897C460.273 190.398 456.138 180.456 453.388 167.979L449.482 168.84ZM462.491 200.257C468.397 208.291 475.448 213.892 483.659 216.938L485.05 213.188C477.684 210.455 471.233 205.396 465.714 197.887L462.491 200.257ZM483.659 216.938C491.844 219.975 500.612 220.437 509.905 218.388L509.044 214.482C500.42 216.383 492.441 215.93 485.05 213.188L483.659 216.938ZM509.905 218.388C515.107 217.242 519.806 215.485 523.984 213.102L522.003 209.627C518.214 211.788 513.9 213.412 509.044 214.482L509.905 218.388ZM523.978 213.106C528.208 210.714 531.812 207.784 534.768 204.31L531.721 201.718C529.093 204.808 525.863 207.445 522.009 209.623L523.978 213.106ZM534.781 204.293C537.723 200.758 539.925 196.775 541.383 192.357L537.585 191.103C536.281 195.051 534.323 198.591 531.707 201.735L534.781 204.293ZM541.376 192.378C542.903 187.926 543.56 183.116 543.375 177.968L539.377 178.112C539.547 182.825 538.943 187.141 537.592 191.081L541.376 192.378ZM541.797 179.995L579.809 171.799L578.966 167.889L540.954 176.085L541.797 179.995ZM577.397 170.037C578.187 178.155 577.486 186.316 575.284 194.532L579.148 195.567C581.469 186.907 582.216 178.264 581.378 169.65L577.397 170.037ZM575.283 194.537C573.131 202.66 569.492 210.329 564.347 217.548L567.605 219.869C573.014 212.278 576.868 204.173 579.149 195.562L575.283 194.537ZM564.348 217.547C559.274 224.662 552.689 230.896 544.564 236.243L546.763 239.584C555.258 233.994 562.215 227.426 567.604 219.87L564.348 217.547ZM544.57 236.239C536.54 241.482 526.948 245.354 515.756 247.821L516.617 251.727C528.198 249.175 538.257 245.139 546.757 239.588L544.57 236.239ZM515.756 247.821C500.226 251.244 485.633 250.779 471.935 246.479L470.736 250.295C485.167 254.825 500.474 255.285 516.617 251.727L515.756 247.821ZM471.938 246.48C458.316 242.173 446.514 234.189 436.52 222.462L433.476 225.057C443.919 237.311 456.343 245.745 470.733 250.294L471.938 246.48ZM436.525 222.467C426.621 210.769 419.53 195.435 415.328 176.368L411.421 177.229C415.729 196.771 423.054 212.745 433.472 225.052L436.525 222.467ZM415.328 176.368C411.113 157.247 411.152 140.316 415.331 125.517L411.482 124.43C407.083 140.006 407.101 157.625 411.421 177.229L415.328 176.368ZM415.331 125.517C419.525 110.664 426.939 98.4744 437.556 88.8843L434.875 85.9159C423.658 96.0476 415.865 108.907 411.482 124.43L415.331 125.517ZM437.561 88.8796C448.186 79.2156 461.118 72.6866 476.412 69.3157L475.551 65.4094C459.633 68.9178 446.055 75.7472 434.87 85.9206L437.561 88.8796ZM476.412 69.3157C486.515 67.0887 496.157 66.4513 505.345 67.3812L505.748 63.4016C496.092 62.4244 486.023 63.1012 475.551 65.4094L476.412 69.3157ZM505.349 67.3816C514.599 68.2996 523.122 70.7286 530.933 74.6574L532.73 71.0839C524.455 66.9219 515.454 64.3648 505.744 63.4012L505.349 67.3816ZM530.942 74.6619C538.724 78.5263 545.546 83.8676 551.412 90.7046L554.448 88.0998C548.244 80.8699 541 75.1902 532.721 71.0793L530.942 74.6619ZM551.42 90.7131C557.324 97.5165 561.993 105.807 565.402 115.62L569.181 114.308C565.628 104.081 560.722 95.3293 554.441 88.0913L551.42 90.7131Z" fill="#F8F8F8"/>
</g>
<g filter="url(#filter1_d_259_1064)">
<path d="M169.569 82.0731L169.477 84.071L171.725 84.1742L171.564 81.9302L169.569 82.0731ZM130.725 80.2897L128.734 80.4781L128.898 82.2079L130.633 82.2876L130.725 80.2897ZM126.994 66.6987L125.201 67.5843L125.207 67.5957L126.994 66.6987ZM119.034 56.2018L117.704 57.6963L117.704 57.6963L119.034 56.2018ZM107.443 49.2709L106.724 51.1373L106.731 51.1401L107.443 49.2709ZM68.2016 52.2683L69.2268 53.9856L69.2369 53.9795L68.2016 52.2683ZM51.0439 71.7433L52.8385 72.6263L52.8406 72.6219L51.0439 71.7433ZM48.0715 136.483L46.2036 137.198L46.2076 137.209L48.0715 136.483ZM63.4734 157.187L62.3144 158.817L63.4734 157.187ZM101.747 163.654L101.249 161.717L101.241 161.719L101.747 163.654ZM113.815 158.254L114.949 159.901L114.958 159.895L114.967 159.889L113.815 158.254ZM122.772 148.978L121.114 147.86L121.108 147.87L121.101 147.879L122.772 148.978ZM128.156 136.25L128.257 134.252L126.584 134.168L126.207 135.8L128.156 136.25ZM166.992 138.211L168.964 138.541L169.335 136.326L167.093 136.213L166.992 138.211ZM158.346 161.987L156.615 160.985L156.612 160.99L158.346 161.987ZM141.345 181.914L142.616 183.458L142.617 183.457L141.345 181.914ZM116.741 195.181L117.362 197.082L117.368 197.08L116.741 195.181ZM42.2439 185.984L41.1663 187.669L41.1696 187.671L42.2439 185.984ZM13.5528 152.762L11.743 153.613L11.7458 153.619L13.5528 152.762ZM18.3679 51.7577L20.0853 52.7826L18.3679 51.7577ZM50.1559 21.401L51.0648 23.1826L51.071 23.1794L50.1559 21.401ZM122.824 18.1609L122.113 20.0301L122.116 20.0315L122.824 18.1609ZM146.263 32.2124L144.931 33.7043L144.939 33.7111L146.263 32.2124ZM162.342 53.6578L160.538 54.5211L160.543 54.5312L162.342 53.6578ZM169.661 80.0752L130.817 78.2918L130.633 82.2876L169.477 84.071L169.661 80.0752ZM132.716 80.1012C132.217 74.8294 130.915 70.0536 128.782 65.8018L125.207 67.5957C127.09 71.349 128.276 75.6339 128.734 80.4781L132.716 80.1012ZM128.788 65.8132C126.671 61.5265 123.862 57.8191 120.363 54.7073L117.704 57.6963C120.809 60.457 123.307 63.7476 125.201 67.5843L128.788 65.8132ZM120.363 54.7074C116.867 51.5985 112.79 49.1662 108.154 47.4017L106.731 51.1401C110.946 52.7443 114.597 54.9327 117.704 57.6963L120.363 54.7074ZM108.162 47.4045C103.573 45.6374 98.5743 44.6398 93.1808 44.3922L92.9973 48.388C98.0095 48.6181 102.58 49.5411 106.724 51.1372L108.162 47.4045ZM93.1808 44.3922C83.4335 43.9446 74.7361 45.9775 67.1664 50.5571L69.2369 53.9795C76.0492 49.8582 83.9434 47.9723 92.9973 48.388L93.1808 44.3922ZM67.1765 50.551C59.6057 55.0707 53.6406 61.8798 49.2472 70.8648L52.8406 72.6219C56.9476 64.2227 62.421 58.0485 69.2268 53.9855L67.1765 50.551ZM49.2494 70.8604C44.849 79.8041 42.3946 90.704 41.8075 103.491L45.8033 103.674C46.3726 91.2747 48.7439 80.9484 52.8385 72.6263L49.2494 70.8604ZM41.8075 103.491C41.2045 116.624 42.6389 127.883 46.2036 137.198L49.9394 135.769C46.627 127.112 45.2173 116.438 45.8033 103.674L41.8075 103.491ZM46.2076 137.209C49.8236 146.501 55.1772 153.742 62.3144 158.817L64.6323 155.557C58.229 151.004 53.3148 144.443 49.9354 135.758L46.2076 137.209ZM62.3144 158.817C69.4299 163.876 77.7769 166.6 87.2832 167.036L87.4666 163.04C78.6447 162.635 71.0573 160.125 64.6323 155.557L62.3144 158.817ZM87.2832 167.036C92.6037 167.281 97.5977 166.805 102.252 165.589L101.241 161.719C97.0209 162.821 92.4336 163.269 87.4666 163.04L87.2832 167.036ZM102.245 165.591C106.951 164.381 111.193 162.488 114.949 159.901L112.68 156.607C109.34 158.907 105.536 160.615 101.249 161.717L102.245 165.591ZM114.967 159.889C118.726 157.239 121.887 153.964 124.443 150.077L121.101 147.879C118.817 151.353 116.006 154.263 112.663 156.619L114.967 159.889ZM124.431 150.096C127.062 146.193 128.946 141.719 130.105 136.7L126.207 135.8C125.147 140.396 123.442 144.407 121.114 147.86L124.431 150.096ZM128.055 138.247L166.891 140.208L167.093 136.213L128.257 134.252L128.055 138.247ZM165.019 137.881C163.672 145.925 160.876 153.624 156.615 160.985L160.077 162.989C164.568 155.229 167.535 147.077 168.964 138.541L165.019 137.881ZM156.612 160.99C152.424 168.275 146.917 174.735 140.074 180.37L142.617 183.457C149.813 177.532 155.64 170.707 160.08 162.984L156.612 160.99ZM140.075 180.369C133.326 185.921 125.348 190.23 116.113 193.282L117.368 197.08C127.023 193.89 135.449 189.354 142.616 183.458L140.075 180.369ZM116.12 193.28C107.004 196.257 96.735 197.504 85.2864 196.978L85.1029 200.974C96.9488 201.518 107.711 200.234 117.362 197.082L116.12 193.28ZM85.2864 196.978C69.3997 196.249 55.4286 192.009 43.3181 184.297L41.1696 187.671C53.9273 195.795 68.5899 200.216 85.1029 200.974L85.2864 196.978ZM43.3215 184.299C31.2855 176.601 21.9636 165.825 15.3597 151.905L11.7458 153.619C18.6469 168.166 28.4524 179.537 41.1663 187.669L43.3215 184.299ZM15.3626 151.911C8.83873 138.04 5.97509 121.391 6.87058 101.887L2.87479 101.703C1.95697 121.694 4.88005 139.022 11.743 153.613L15.3626 151.911ZM6.87058 101.887C7.76863 82.3272 12.2048 65.9879 20.0853 52.7826L16.6505 50.7328C8.35614 64.6314 3.79548 81.6504 2.87479 101.703L6.87058 101.887ZM20.0853 52.7826C27.9945 39.5294 38.3202 29.6848 51.0648 23.1826L49.247 19.6195C35.7826 26.4889 24.9162 36.8821 16.6505 50.7328L20.0853 52.7826ZM51.071 23.1794C63.8417 16.6076 78.0255 13.6626 93.67 14.3809L93.8534 10.3851C77.5713 9.63753 62.6845 12.7045 49.2408 19.6227L51.071 23.1794ZM93.67 14.3809C104.005 14.8554 113.481 16.7448 122.113 20.0301L123.536 16.2917C114.465 12.8395 104.566 10.8769 93.8534 10.3851L93.67 14.3809ZM122.116 20.0315C130.81 23.3212 138.409 27.8809 144.931 33.7043L147.595 30.7205C140.686 24.5516 132.658 19.7436 123.532 16.2904L122.116 20.0315ZM144.939 33.7111C151.45 39.4646 156.649 46.3947 160.538 54.5211L164.146 52.7945C160.034 44.2011 154.514 36.8342 147.588 30.7137L144.939 33.7111ZM160.543 54.5312C164.477 62.635 166.832 71.8534 167.574 82.2161L171.564 81.9302C170.79 71.131 168.327 61.4058 164.141 52.7844L160.543 54.5312Z" fill="#F8F8F8"/>
</g>
<g filter="url(#filter2_d_259_1064)">
<path d="M272.224 191.213L270.34 190.541L269.669 192.426L271.553 193.097L272.224 191.213ZM333.228 19.934L333.899 18.0499L332.015 17.3789L331.344 19.2629L333.228 19.934ZM431.354 63.2708L429.865 64.6066L429.871 64.6136L431.354 63.2708ZM444.964 91.2074L442.989 91.524L442.99 91.5315L442.991 91.539L444.964 91.2074ZM394.869 164.12L394.594 162.139L394.589 162.139L394.869 164.12ZM315.587 144.081L313.703 143.41L313.032 145.294L314.916 145.965L315.587 144.081ZM325.923 115.06L326.594 113.176L324.71 112.505L324.039 114.389L325.923 115.06ZM381.648 130.856L381.939 132.834L381.948 132.833L381.648 130.856ZM395.456 124.37L394.1 122.9L394.093 122.906L395.456 124.37ZM406.09 94.5136L404.108 94.7866L404.111 94.8021L404.113 94.8175L406.09 94.5136ZM399.431 80.9273L397.962 82.2843L397.968 82.2913L397.975 82.2983L399.431 80.9273ZM358.896 62.4376L359.567 60.5535L357.683 59.8825L357.012 61.7665L358.896 62.4376ZM308.437 204.11L307.765 205.994L309.65 206.665L310.321 204.781L308.437 204.11ZM274.108 191.884L335.112 20.605L331.344 19.2629L270.34 190.541L274.108 191.884ZM332.557 21.818L400.132 45.8861L401.474 42.1179L333.899 18.0499L332.557 21.818ZM400.132 45.8861C412.885 50.4285 422.76 56.69 429.865 64.6066L432.842 61.9349C425.194 53.4137 414.702 46.8293 401.474 42.1179L400.132 45.8861ZM429.871 64.6136C437.018 72.5017 441.376 81.461 442.989 91.524L446.939 90.8908C445.197 80.0312 440.481 70.3661 432.836 61.9279L429.871 64.6136ZM442.991 91.539C444.68 101.583 443.585 112.136 439.632 123.235L443.4 124.577C447.549 112.929 448.753 101.683 446.936 90.8758L442.991 91.539ZM439.632 123.235C435.68 134.331 429.832 143.188 422.122 149.883L424.745 152.903C433.043 145.697 439.25 136.23 443.4 124.577L439.632 123.235ZM422.122 149.883C414.426 156.566 405.269 160.655 394.594 162.139L395.144 166.101C406.546 164.516 416.433 160.12 424.745 152.903L422.122 149.883ZM394.589 162.139C383.998 163.638 372.259 162.143 359.328 157.537L357.986 161.305C371.372 166.073 383.774 167.71 395.149 166.1L394.589 162.139ZM359.328 157.537L316.258 142.197L314.916 145.965L357.986 161.305L359.328 157.537ZM317.471 144.752L327.807 115.731L324.039 114.389L313.703 143.41L317.471 144.752ZM325.252 116.945L362.468 130.2L363.81 126.432L326.594 113.176L325.252 116.945ZM362.468 130.2C369.639 132.754 376.149 133.685 381.939 132.834L381.358 128.877C376.407 129.604 370.578 128.842 363.81 126.432L362.468 130.2ZM381.948 132.833C387.761 131.953 392.743 129.627 396.818 125.834L394.093 122.906C390.65 126.111 386.427 128.109 381.349 128.878L381.948 132.833ZM396.811 125.841C400.917 122.056 404.002 117.184 406.101 111.292L402.332 109.95C400.419 115.321 397.664 119.615 394.1 122.9L396.811 125.841ZM406.101 111.292C408.217 105.35 408.902 99.6435 408.066 94.2096L404.113 94.8175C404.831 99.4868 404.267 104.519 402.332 109.95L406.101 111.292ZM408.071 94.2405C407.309 88.7153 404.891 83.8092 400.887 79.5563L397.975 82.2983C401.447 85.9856 403.468 90.137 404.108 94.7866L408.071 94.2405ZM400.9 79.5704C396.898 75.2368 391.213 71.8247 383.988 69.2514L382.646 73.0195C389.471 75.4504 394.528 78.5662 397.962 82.2843L400.9 79.5704ZM383.988 69.2514L359.567 60.5535L358.225 64.3216L382.646 73.0195L383.988 69.2514ZM357.012 61.7665L306.552 203.439L310.321 204.781L360.78 63.1086L357.012 61.7665ZM309.108 202.226L272.895 189.328L271.553 193.097L307.765 205.994L309.108 202.226Z" fill="#F8F8F8"/>
</g>
<g filter="url(#filter3_d_259_1064)">
<path d="M189.195 231.192L189.511 233.167L190.945 232.937L191.171 231.502L189.195 231.192ZM148.519 237.699L146.549 237.353L146.064 240.117L148.835 239.674L148.519 237.699ZM181.775 48.2488L181.459 46.2739L180.052 46.499L179.805 47.903L181.775 48.2488ZM230.692 40.4231L232.456 39.4808L231.784 38.2229L230.376 38.4482L230.692 40.4231ZM321.304 210.057L321.62 212.032L324.39 211.589L323.068 209.115L321.304 210.057ZM280.628 216.564L278.847 217.475L279.509 218.769L280.944 218.539L280.628 216.564ZM213.498 85.2503L215.279 84.34L214.617 83.0458L213.182 83.2754L213.498 85.2503ZM212.095 85.4747L211.78 83.4998L210.345 83.7293L210.12 85.1642L212.095 85.4747ZM175.363 161.029L175.047 159.054L173.072 159.37L173.388 161.345L175.363 161.029ZM271.442 145.659L273.417 145.343L273.101 143.368L271.127 143.684L271.442 145.659ZM276.183 175.289L276.499 177.264L278.474 176.948L278.158 174.973L276.183 175.289ZM180.103 190.66L178.128 190.976L178.444 192.951L180.419 192.635L180.103 190.66ZM188.879 229.217L148.203 235.724L148.835 239.674L189.511 233.167L188.879 229.217ZM150.489 238.045L183.745 48.5946L179.805 47.903L146.549 237.353L150.489 238.045ZM182.091 50.2236L231.007 42.398L230.376 38.4482L181.459 46.2739L182.091 50.2236ZM228.927 41.3654L319.54 210.999L323.068 209.115L232.456 39.4808L228.927 41.3654ZM320.988 208.082L280.312 214.589L280.944 218.539L321.62 212.032L320.988 208.082ZM282.409 215.654L215.279 84.34L211.717 86.1607L278.847 217.475L282.409 215.654ZM213.182 83.2754L211.78 83.4998L212.411 87.4496L213.814 87.2252L213.182 83.2754ZM210.12 85.1642L187.219 230.881L191.171 231.502L214.071 85.7852L210.12 85.1642ZM175.679 163.004L271.758 147.633L271.127 143.684L175.047 159.054L175.679 163.004ZM269.468 145.974L274.208 175.605L278.158 174.973L273.417 145.343L269.468 145.974ZM275.867 173.314L179.787 188.685L180.419 192.635L276.499 177.264L275.867 173.314ZM182.078 190.344L177.338 160.713L173.388 161.345L178.128 190.976L182.078 190.344Z" fill="#FF792B"/>
</g>
<defs>
<filter id="filter0_d_259_1064" x="393.272" y="50.3745" width="214.989" height="217.629" filterUnits="userSpaceOnUse" color-interpolation-filters="sRGB">
<feFlood flood-opacity="0" result="BackgroundImageFix"/>
<feColorMatrix in="SourceAlpha" type="matrix" values="0 0 0 0 0 0 0 0 0 0 0 0 0 0 0 0 0 0 127 0" result="hardAlpha"/>
<feOffset dx="15"/>
<feComposite in2="hardAlpha" operator="out"/>
<feColorMatrix type="matrix" values="0 0 0 0 1 0 0 0 0 1 0 0 0 0 1 0 0 0 1 0"/>
<feBlend mode="normal" in2="BackgroundImageFix" result="effect1_dropShadow_259_1064"/>
<feBlend mode="normal" in="SourceGraphic" in2="effect1_dropShadow_259_1064" result="shape"/>
</filter>
<filter id="filter1_d_259_1064" x="0.589111" y="8.49854" width="187.014" height="194.098" filterUnits="userSpaceOnUse" color-interpolation-filters="sRGB">
<feFlood flood-opacity="0" result="BackgroundImageFix"/>
<feColorMatrix in="SourceAlpha" type="matrix" values="0 0 0 0 0 0 0 0 0 0 0 0 0 0 0 0 0 0 127 0" result="hardAlpha"/>
<feOffset dx="15"/>
<feComposite in2="hardAlpha" operator="out"/>
<feColorMatrix type="matrix" values="0 0 0 0 1 0 0 0 0 1 0 0 0 0 1 0 0 0 1 0"/>
<feBlend mode="normal" in2="BackgroundImageFix" result="effect1_dropShadow_259_1064"/>
<feBlend mode="normal" in="SourceGraphic" in2="effect1_dropShadow_259_1064" result="shape"/>
</filter>
<filter id="filter2_d_259_1064" x="272.224" y="19.9341" width="204.965" height="217.21" filterUnits="userSpaceOnUse" color-interpolation-filters="sRGB">
<feFlood flood-opacity="0" result="BackgroundImageFix"/>
<feColorMatrix in="SourceAlpha" type="matrix" values="0 0 0 0 0 0 0 0 0 0 0 0 0 0 0 0 0 0 127 0" result="hardAlpha"/>
<feOffset dx="15"/>
<feComposite in2="hardAlpha" operator="out"/>
<feColorMatrix type="matrix" values="0 0 0 0 1 0 0 0 0 1 0 0 0 0 1 0 0 0 1 0"/>
<feBlend mode="normal" in2="BackgroundImageFix" result="effect1_dropShadow_259_1064"/>
<feBlend mode="normal" in="SourceGraphic" in2="effect1_dropShadow_259_1064" result="shape"/>
</filter>
<filter id="filter3_d_259_1064" x="119.797" y="30.522" width="216.507" height="207.177" filterUnits="userSpaceOnUse" color-interpolation-filters="sRGB">
<feFlood flood-opacity="0" result="BackgroundImageFix"/>
<feColorMatrix in="SourceAlpha" type="matrix" values="0 0 0 0 0 0 0 0 0 0 0 0 0 0 0 0 0 0 127 0" result="hardAlpha"/>
<feOffset dx="15"/>
<feComposite in2="hardAlpha" operator="out"/>
<feColorMatrix type="matrix" values="0 0 0 0 1 0 0 0 0 0.47451 0 0 0 0 0.168627 0 0 0 1 0"/>
<feBlend mode="normal" in2="BackgroundImageFix" result="effect1_dropShadow_259_1064"/>
<feBlend mode="normal" in="SourceGraphic" in2="effect1_dropShadow_259_1064" result="shape"/>
</filter>
</defs>
</svg>
