<svg width="226" height="63" viewBox="0 0 226 63" fill="none" xmlns="http://www.w3.org/2000/svg">
<g filter="url(#filter0_d_270_159)">
<path d="M48.9462 25.8672V27.8672H51.196L50.9324 25.6329L48.9462 25.8672ZM41.1692 25.8672L39.1889 26.1468L39.4317 27.8672H41.1692V25.8672ZM40.2992 23.1861L38.5484 24.1529L38.5546 24.1641L40.2992 23.1861ZM38.6124 21.1619L37.3532 22.7158L37.3532 22.7158L38.6124 21.1619ZM36.2331 19.8835L35.6007 21.7809L35.6082 21.7834L36.2331 19.8835ZM28.4206 20.8423L29.5235 22.5108L29.5333 22.5043L28.4206 20.8423ZM25.1713 24.8906L27.0045 25.6903L27.0065 25.6858L25.1713 24.8906ZM25.1713 37.8523L23.3382 38.652L23.3427 38.6623L25.1713 37.8523ZM28.4384 41.8473L27.3554 43.5287L28.4384 41.8473ZM36.1444 42.7884L35.558 40.8762L35.5507 40.8785L36.1444 42.7884ZM38.5059 41.5987L39.7146 43.1921L39.7233 43.1855L39.7319 43.1789L38.5059 41.5987ZM40.2104 39.6634L38.5025 38.6226L38.4966 38.6324L38.4907 38.6423L40.2104 39.6634ZM41.1692 37.071L41.1783 35.071L39.5033 35.0634L39.2019 36.7111L41.1692 37.071ZM48.9462 37.1065L50.9318 37.3459L51.2006 35.1168L48.9553 35.1066L48.9462 37.1065ZM47.437 41.9361L45.6619 41.0146L45.6592 41.0198L47.437 41.9361ZM44.2232 46.0732L45.5633 47.5578L45.564 47.5571L44.2232 46.0732ZM39.4292 48.9496L40.1367 50.8203L40.1431 50.8178L39.4292 48.9496ZM24.4611 47.7955L23.4619 49.528L23.4654 49.53L24.4611 47.7955ZM18.4242 41.4212L16.6553 42.3545L16.6584 42.3604L18.4242 41.4212ZM18.4597 21.1974L20.2223 22.1425L18.4597 21.1974ZM24.5321 14.8409L25.5218 16.5789L25.5279 16.5754L24.5321 14.8409ZM39.0208 13.527L38.3958 15.4268L38.3995 15.428L39.0208 13.527ZM43.8326 16.1193L42.5704 17.6708L42.5784 17.6772L43.8326 16.1193ZM47.2417 20.2564L45.479 21.2016L45.4844 21.2114L47.2417 20.2564ZM48.9462 23.8672H41.1692V27.8672H48.9462V23.8672ZM43.1496 25.5876C42.9775 24.3688 42.6181 23.2326 42.0437 22.2081L38.5546 24.1641C38.8562 24.7021 39.0768 25.3533 39.1889 26.1468L43.1496 25.5876ZM42.05 22.2192C41.4907 21.2065 40.7634 20.3307 39.8716 19.6081L37.3532 22.7158C37.8345 23.1058 38.2318 23.5795 38.5484 24.1529L42.05 22.2192ZM39.8716 19.6081C38.9832 18.8882 37.9717 18.35 36.8581 17.9837L35.6082 21.7834C36.2938 22.0089 36.8685 22.323 37.3532 22.7158L39.8716 19.6081ZM36.8656 17.9862C35.7522 17.615 34.5715 17.4396 33.339 17.4396V21.4396C34.1898 21.4396 34.9385 21.5602 35.6007 21.7809L36.8656 17.9862ZM33.339 17.4396C31.1098 17.4396 29.0726 17.999 27.308 19.1804L29.5333 22.5043C30.5622 21.8154 31.8039 21.4396 33.339 21.4396V17.4396ZM27.3178 19.1739C25.5494 20.3428 24.2353 22.0207 23.3362 24.0954L27.0065 25.6858C27.6462 24.2094 28.4983 23.1884 29.5235 22.5108L27.3178 19.1739ZM23.3382 24.0909C22.4303 26.1721 22.0172 28.6031 22.0172 31.3182H26.0172C26.0172 28.9907 26.3736 27.1366 27.0045 25.6903L23.3382 24.0909ZM22.0172 31.3182C22.0172 34.0955 22.4276 36.5647 23.3382 38.652L27.0045 37.0526C26.3762 35.6124 26.0172 33.7255 26.0172 31.3182H22.0172ZM23.3427 38.6623C24.256 40.7242 25.5801 42.3853 27.3554 43.5287L29.5213 40.1659C28.5031 39.5101 27.6491 38.5078 27 37.0423L23.3427 38.6623ZM27.3554 43.5287C29.1084 44.6577 31.1084 45.1967 33.2857 45.1967V41.1967C31.7935 41.1967 30.562 40.8361 29.5213 40.1659L27.3554 43.5287ZM33.2857 45.1967C34.4924 45.1967 35.6479 45.037 36.738 44.6982L35.5507 40.8785C34.889 41.0842 34.1386 41.1967 33.2857 41.1967V45.1967ZM36.7307 44.7005C37.8256 44.3647 38.8269 43.8656 39.7146 43.1921L37.2971 40.0053C36.8117 40.3736 36.2387 40.6675 35.558 40.8762L36.7307 44.7005ZM39.7319 43.1789C40.6194 42.4903 41.3541 41.6546 41.9301 40.6844L38.4907 38.6423C38.1671 39.1872 37.7654 39.6418 37.2799 40.0186L39.7319 43.1789ZM41.9183 40.7041C42.5209 39.7152 42.9199 38.6155 43.1366 37.4309L39.2019 36.7111C39.0634 37.4678 38.8232 38.0964 38.5025 38.6226L41.9183 40.7041ZM41.1601 39.071L48.9371 39.1065L48.9553 35.1066L41.1783 35.071L41.1601 39.071ZM46.9606 36.8671C46.7892 38.2887 46.3607 39.6684 45.6619 41.0147L49.2121 42.8575C50.1231 41.1024 50.7008 39.2624 50.9318 37.3459L46.9606 36.8671ZM45.6592 41.0198C44.9819 42.334 44.0623 43.5231 42.8824 44.5892L45.564 47.5571C47.0829 46.1848 48.3059 44.6158 49.2147 42.8523L45.6592 41.0198ZM42.8831 44.5885C41.7469 45.6141 40.367 46.4501 38.7152 47.0814L40.1431 50.8178C42.2082 50.0286 44.0243 48.947 45.5633 47.5578L42.8831 44.5885ZM38.7217 47.0789C37.138 47.6778 35.2945 47.9972 33.1614 47.9972V51.9972C35.6922 51.9972 38.0271 51.6181 40.1367 50.8203L38.7217 47.0789ZM33.1614 47.9972C30.2315 47.9972 27.6809 47.3377 25.4569 46.0609L23.4654 49.53C26.3549 51.1888 29.6045 51.9972 33.1614 51.9972V47.9972ZM25.4603 46.063C23.2639 44.7961 21.5068 42.9576 20.1899 40.4819L16.6584 42.3604C18.3009 45.4482 20.5684 47.8592 23.4619 49.528L25.4603 46.063ZM20.193 40.4878C18.9111 38.0584 18.2225 35.0283 18.2225 31.3182H14.2225C14.2225 35.5152 15.0016 39.2205 16.6553 42.3545L20.193 40.4878ZM18.2225 31.3182C18.2225 27.5996 18.9216 24.5684 20.2223 22.1425L16.6971 20.2524C15.0148 23.3899 14.2225 27.1059 14.2225 31.3182H18.2225ZM20.2223 22.1425C21.5494 19.6674 23.3161 17.8349 25.5218 16.5789L23.5425 13.1029C20.6346 14.7588 18.3529 17.164 16.6971 20.2524L20.2223 22.1425ZM25.5279 16.5754C27.7564 15.296 30.2845 14.6392 33.1614 14.6392V10.6392C29.6463 10.6392 26.4215 11.4502 23.5364 13.1064L25.5279 16.5754ZM33.1614 14.6392C35.0797 14.6392 36.8196 14.9083 38.3958 15.4268L39.6457 11.6271C37.6235 10.9619 35.4571 10.6392 33.1614 10.6392V14.6392ZM38.3995 15.428C39.991 15.9482 41.3749 16.6981 42.5704 17.6707L45.0947 14.5679C43.4967 13.2678 41.6727 12.2895 39.642 11.6259L38.3995 15.428ZM42.5784 17.6772C43.7593 18.6279 44.7255 19.7961 45.4791 21.2015L49.0042 19.3112C48.006 17.4496 46.6994 15.8598 45.0868 14.5615L42.5784 17.6772ZM45.4844 21.2114C46.2348 22.5922 46.737 24.2118 46.96 26.1015L50.9324 25.6329C50.6582 23.3086 50.0241 21.1877 48.9989 19.3014L45.4844 21.2114Z" fill="#F8F8F8"/>
</g>
<g filter="url(#filter1_d_270_159)">
<path d="M82.2271 49.5V51.5H83.6796L84.129 50.1187L82.2271 49.5ZM73.9885 49.5L72.0979 48.8474L71.1822 51.5H73.9885V49.5ZM86.5417 13.1364V11.1364H85.1163L84.6512 12.4837L86.5417 13.1364ZM96.4494 13.1364L98.3402 12.4846L97.8754 11.1364H96.4494V13.1364ZM108.985 49.5V51.5H111.79L110.876 48.8482L108.985 49.5ZM100.746 49.5L98.844 50.1176L99.2929 51.5H100.746V49.5ZM91.6376 21.446L93.5399 20.8284L93.091 19.446H91.6376V21.446ZM91.3535 21.446V19.446H89.901L89.4516 20.8273L91.3535 21.446ZM81.7122 35.2067V33.2067H79.7122V35.2067H81.7122ZM101.172 35.2067H103.172V33.2067H101.172V35.2067ZM101.172 41.2081V43.2081H103.172V41.2081H101.172ZM81.7122 41.2081H79.7122V43.2081H81.7122V41.2081ZM82.2271 47.5H73.9885V51.5H82.2271V47.5ZM75.879 50.1526L88.4322 13.789L84.6512 12.4837L72.0979 48.8474L75.879 50.1526ZM86.5417 15.1364H96.4494V11.1364H86.5417V15.1364ZM94.5586 13.7882L107.094 50.1518L110.876 48.8482L98.3402 12.4846L94.5586 13.7882ZM108.985 47.5H100.746V51.5H108.985V47.5ZM102.649 48.8824L93.5399 20.8284L89.7354 22.0637L98.844 50.1176L102.649 48.8824ZM91.6376 19.446H91.3535V23.446H91.6376V19.446ZM89.4516 20.8273L80.3252 48.8813L84.129 50.1187L93.2554 22.0647L89.4516 20.8273ZM81.7122 37.2067H101.172V33.2067H81.7122V37.2067ZM99.1724 35.2067V41.2081H103.172V35.2067H99.1724ZM101.172 39.2081H81.7122V43.2081H101.172V39.2081ZM83.7122 41.2081V35.2067H79.7122V41.2081H83.7122Z" fill="#FF792B"/>
</g>
<g filter="url(#filter2_d_270_159)">
<path d="M132.474 50H130.474V52H132.474V50ZM132.474 13.6364V11.6364H130.474V13.6364H132.474ZM153.87 15.2166L152.916 16.9745L152.924 16.9789L153.87 15.2166ZM158.309 19.5668L156.554 20.5276L156.558 20.5343L156.562 20.5409L158.309 19.5668ZM153.763 36.6655L152.839 34.8917L152.835 34.894L153.763 36.6655ZM137.481 38.2102H135.481V40.2102H137.481V38.2102ZM137.481 32.049V30.049H135.481V32.049H137.481ZM149.04 31.2855L149.978 33.052L149.986 33.0478L149.04 31.2855ZM151.206 29.1371L149.436 28.2065L149.431 28.2151L151.206 29.1371ZM151.206 22.7983L149.431 23.7203L149.439 23.7341L149.446 23.7479L151.206 22.7983ZM149.04 20.6854L148.111 22.4566L148.12 22.4611L148.128 22.4655L149.04 20.6854ZM140.162 19.9219V17.9219H138.162V19.9219H140.162ZM140.162 50V52H142.162V50H140.162ZM134.474 50V13.6364H130.474V50H134.474ZM132.474 15.6364H146.821V11.6364H132.474V15.6364ZM146.821 15.6364C149.327 15.6364 151.331 16.1147 152.916 16.9745L154.824 13.4588C152.525 12.2116 149.83 11.6364 146.821 11.6364V15.6364ZM152.924 16.9789C154.538 17.8451 155.73 19.023 156.554 20.5276L160.063 18.6059C158.851 16.3937 157.084 14.6715 154.815 13.4543L152.924 16.9789ZM156.562 20.5409C157.403 22.0496 157.853 23.8359 157.853 25.9588H161.853C161.853 23.2521 161.274 20.7771 160.055 18.5926L156.562 20.5409ZM157.853 25.9588C157.853 28.0778 157.399 29.8611 156.549 31.3682L160.033 33.3335C161.266 31.1474 161.853 28.6693 161.853 25.9588H157.853ZM156.549 31.3682C155.707 32.8597 154.491 34.0312 152.839 34.8917L154.687 38.4392C156.989 37.2401 158.791 35.5352 160.033 33.3335L156.549 31.3682ZM152.835 34.894C151.221 35.7398 149.177 36.2102 146.625 36.2102V40.2102C149.66 40.2102 152.375 39.6508 154.691 38.4369L152.835 34.894ZM146.625 36.2102H137.481V40.2102H146.625V36.2102ZM139.481 38.2102V32.049H135.481V38.2102H139.481ZM137.481 34.049H145.382V30.049H137.481V34.049ZM145.382 34.049C147.076 34.049 148.645 33.7598 149.978 33.052L148.102 29.519C147.518 29.8292 146.648 30.049 145.382 30.049V34.049ZM149.986 33.0478C151.284 32.3512 152.308 31.354 152.981 30.0591L149.431 28.2151C149.157 28.7431 148.737 29.1782 148.094 29.5232L149.986 33.0478ZM152.977 30.0676C153.633 28.8179 153.934 27.4308 153.934 25.9588H149.934C149.934 26.8779 149.75 27.6097 149.436 28.2065L152.977 30.0676ZM153.934 25.9588C153.934 24.48 153.635 23.0888 152.966 21.8487L149.446 23.7479C149.748 24.3071 149.934 25.0228 149.934 25.9588H153.934ZM152.981 21.8763C152.304 20.5727 151.268 19.5795 149.952 18.9053L148.128 22.4655C148.753 22.7856 149.162 23.201 149.431 23.7203L152.981 21.8763ZM149.969 18.9141C148.627 18.2106 147.051 17.9219 145.347 17.9219V21.9219C146.626 21.9219 147.512 22.1422 148.111 22.4566L149.969 18.9141ZM145.347 17.9219H140.162V21.9219H145.347V17.9219ZM138.162 19.9219V50H142.162V19.9219H138.162ZM140.162 48H132.474V52H140.162V48Z" fill="#F8F8F8"/>
</g>
<g filter="url(#filter3_d_270_159)">
<path d="M215.946 25.8672V27.8672H218.196L217.932 25.6329L215.946 25.8672ZM208.169 25.8672L206.189 26.1468L206.432 27.8672H208.169V25.8672ZM207.299 23.1861L205.548 24.1529L205.555 24.1641L207.299 23.1861ZM205.612 21.1619L204.353 22.7158L204.353 22.7158L205.612 21.1619ZM203.233 19.8835L202.601 21.7809L202.608 21.7834L203.233 19.8835ZM195.421 20.8423L196.524 22.5108L196.533 22.5043L195.421 20.8423ZM192.171 24.8906L194.005 25.6903L194.006 25.6858L192.171 24.8906ZM192.171 37.8523L190.338 38.652L190.343 38.6623L192.171 37.8523ZM195.438 41.8473L194.355 43.5287L195.438 41.8473ZM203.144 42.7884L202.558 40.8762L202.551 40.8785L203.144 42.7884ZM205.506 41.5987L206.715 43.1921L206.723 43.1855L206.732 43.1789L205.506 41.5987ZM207.21 39.6634L205.503 38.6226L205.497 38.6324L205.491 38.6423L207.21 39.6634ZM208.169 37.071L208.178 35.071L206.503 35.0634L206.202 36.7111L208.169 37.071ZM215.946 37.1065L217.932 37.3459L218.201 35.1168L215.955 35.1066L215.946 37.1065ZM214.437 41.9361L212.662 41.0146L212.659 41.0198L214.437 41.9361ZM211.223 46.0732L212.563 47.5578L212.564 47.5571L211.223 46.0732ZM206.429 48.9496L207.137 50.8203L207.143 50.8178L206.429 48.9496ZM191.461 47.7955L190.462 49.528L190.465 49.53L191.461 47.7955ZM185.424 41.4212L183.655 42.3545L183.658 42.3604L185.424 41.4212ZM185.46 21.1974L187.222 22.1425L185.46 21.1974ZM191.532 14.8409L192.522 16.5789L192.528 16.5754L191.532 14.8409ZM206.021 13.527L205.396 15.4268L205.4 15.428L206.021 13.527ZM210.833 16.1193L209.57 17.6708L209.578 17.6772L210.833 16.1193ZM214.242 20.2564L212.479 21.2016L212.484 21.2114L214.242 20.2564ZM215.946 23.8672H208.169V27.8672H215.946V23.8672ZM210.15 25.5876C209.978 24.3688 209.618 23.2326 209.044 22.2081L205.555 24.1641C205.856 24.7021 206.077 25.3533 206.189 26.1468L210.15 25.5876ZM209.05 22.2192C208.491 21.2065 207.763 20.3307 206.872 19.6081L204.353 22.7158C204.835 23.1058 205.232 23.5795 205.548 24.1529L209.05 22.2192ZM206.872 19.6081C205.983 18.8882 204.972 18.35 203.858 17.9837L202.608 21.7834C203.294 22.0089 203.868 22.323 204.353 22.7158L206.872 19.6081ZM203.866 17.9862C202.752 17.615 201.571 17.4396 200.339 17.4396V21.4396C201.19 21.4396 201.938 21.5602 202.601 21.7809L203.866 17.9862ZM200.339 17.4396C198.11 17.4396 196.073 17.999 194.308 19.1804L196.533 22.5043C197.562 21.8154 198.804 21.4396 200.339 21.4396V17.4396ZM194.318 19.1739C192.549 20.3428 191.235 22.0207 190.336 24.0954L194.006 25.6858C194.646 24.2094 195.498 23.1884 196.523 22.5108L194.318 19.1739ZM190.338 24.0909C189.43 26.1721 189.017 28.6031 189.017 31.3182H193.017C193.017 28.9907 193.374 27.1366 194.005 25.6903L190.338 24.0909ZM189.017 31.3182C189.017 34.0955 189.428 36.5647 190.338 38.652L194.005 37.0526C193.376 35.6124 193.017 33.7255 193.017 31.3182H189.017ZM190.343 38.6623C191.256 40.7242 192.58 42.3853 194.355 43.5287L196.521 40.1659C195.503 39.5101 194.649 38.5078 194 37.0423L190.343 38.6623ZM194.355 43.5287C196.108 44.6577 198.108 45.1967 200.286 45.1967V41.1967C198.793 41.1967 197.562 40.8361 196.521 40.1659L194.355 43.5287ZM200.286 45.1967C201.492 45.1967 202.648 45.037 203.738 44.6982L202.551 40.8785C201.889 41.0842 201.139 41.1967 200.286 41.1967V45.1967ZM203.731 44.7005C204.826 44.3647 205.827 43.8656 206.715 43.1921L204.297 40.0053C203.812 40.3736 203.239 40.6675 202.558 40.8762L203.731 44.7005ZM206.732 43.1789C207.619 42.4903 208.354 41.6546 208.93 40.6844L205.491 38.6423C205.167 39.1872 204.765 39.6418 204.28 40.0186L206.732 43.1789ZM208.918 40.7041C209.521 39.7152 209.92 38.6155 210.137 37.4309L206.202 36.7111C206.063 37.4678 205.823 38.0964 205.503 38.6226L208.918 40.7041ZM208.16 39.071L215.937 39.1065L215.955 35.1066L208.178 35.071L208.16 39.071ZM213.961 36.8671C213.789 38.2887 213.361 39.6684 212.662 41.0147L216.212 42.8575C217.123 41.1024 217.701 39.2624 217.932 37.3459L213.961 36.8671ZM212.659 41.0198C211.982 42.334 211.062 43.5231 209.882 44.5892L212.564 47.5571C214.083 46.1848 215.306 44.6158 216.215 42.8523L212.659 41.0198ZM209.883 44.5885C208.747 45.6141 207.367 46.4501 205.715 47.0814L207.143 50.8178C209.208 50.0286 211.024 48.947 212.563 47.5578L209.883 44.5885ZM205.722 47.0789C204.138 47.6778 202.294 47.9972 200.161 47.9972V51.9972C202.692 51.9972 205.027 51.6181 207.137 50.8203L205.722 47.0789ZM200.161 47.9972C197.232 47.9972 194.681 47.3377 192.457 46.0609L190.465 49.53C193.355 51.1888 196.605 51.9972 200.161 51.9972V47.9972ZM192.46 46.063C190.264 44.7961 188.507 42.9576 187.19 40.4819L183.658 42.3604C185.301 45.4482 187.568 47.8592 190.462 49.528L192.46 46.063ZM187.193 40.4878C185.911 38.0584 185.222 35.0283 185.222 31.3182H181.222C181.222 35.5152 182.002 39.2205 183.655 42.3545L187.193 40.4878ZM185.222 31.3182C185.222 27.5996 185.922 24.5684 187.222 22.1425L183.697 20.2524C182.015 23.3899 181.222 27.1059 181.222 31.3182H185.222ZM187.222 22.1425C188.549 19.6674 190.316 17.8349 192.522 16.5789L190.542 13.1029C187.635 14.7588 185.353 17.164 183.697 20.2524L187.222 22.1425ZM192.528 16.5754C194.756 15.296 197.285 14.6392 200.161 14.6392V10.6392C196.646 10.6392 193.421 11.4502 190.536 13.1064L192.528 16.5754ZM200.161 14.6392C202.08 14.6392 203.82 14.9083 205.396 15.4268L206.646 11.6271C204.624 10.9619 202.457 10.6392 200.161 10.6392V14.6392ZM205.4 15.428C206.991 15.9482 208.375 16.6981 209.57 17.6707L212.095 14.5679C210.497 13.2678 208.673 12.2895 206.642 11.6259L205.4 15.428ZM209.578 17.6772C210.759 18.6279 211.725 19.7961 212.479 21.2015L216.004 19.3112C215.006 17.4496 213.699 15.8598 212.087 14.5615L209.578 17.6772ZM212.484 21.2114C213.235 22.5922 213.737 24.2118 213.96 26.1015L217.932 25.6329C217.658 23.3086 217.024 21.1877 215.999 19.3014L212.484 21.2114Z" fill="#F8F8F8"/>
</g>
<defs>
<filter id="filter0_d_270_159" x="16.2225" y="12.6392" width="37.7236" height="37.3579" filterUnits="userSpaceOnUse" color-interpolation-filters="sRGB">
<feFlood flood-opacity="0" result="BackgroundImageFix"/>
<feColorMatrix in="SourceAlpha" type="matrix" values="0 0 0 0 0 0 0 0 0 0 0 0 0 0 0 0 0 0 127 0" result="hardAlpha"/>
<feOffset dx="5"/>
<feComposite in2="hardAlpha" operator="out"/>
<feColorMatrix type="matrix" values="0 0 0 0 1 0 0 0 0 1 0 0 0 0 1 0 0 0 1 0"/>
<feBlend mode="normal" in2="BackgroundImageFix" result="effect1_dropShadow_270_159"/>
<feBlend mode="normal" in="SourceGraphic" in2="effect1_dropShadow_270_159" result="shape"/>
</filter>
<filter id="filter1_d_270_159" x="73.9884" y="13.1362" width="39.9965" height="36.3638" filterUnits="userSpaceOnUse" color-interpolation-filters="sRGB">
<feFlood flood-opacity="0" result="BackgroundImageFix"/>
<feColorMatrix in="SourceAlpha" type="matrix" values="0 0 0 0 0 0 0 0 0 0 0 0 0 0 0 0 0 0 127 0" result="hardAlpha"/>
<feOffset dx="5"/>
<feComposite in2="hardAlpha" operator="out"/>
<feColorMatrix type="matrix" values="0 0 0 0 1 0 0 0 0 0.47451 0 0 0 0 0.168627 0 0 0 1 0"/>
<feBlend mode="normal" in2="BackgroundImageFix" result="effect1_dropShadow_270_159"/>
<feBlend mode="normal" in="SourceGraphic" in2="effect1_dropShadow_270_159" result="shape"/>
</filter>
<filter id="filter2_d_270_159" x="132.474" y="13.6362" width="32.3793" height="36.3638" filterUnits="userSpaceOnUse" color-interpolation-filters="sRGB">
<feFlood flood-opacity="0" result="BackgroundImageFix"/>
<feColorMatrix in="SourceAlpha" type="matrix" values="0 0 0 0 0 0 0 0 0 0 0 0 0 0 0 0 0 0 127 0" result="hardAlpha"/>
<feOffset dx="5"/>
<feComposite in2="hardAlpha" operator="out"/>
<feColorMatrix type="matrix" values="0 0 0 0 1 0 0 0 0 1 0 0 0 0 1 0 0 0 1 0"/>
<feBlend mode="normal" in2="BackgroundImageFix" result="effect1_dropShadow_270_159"/>
<feBlend mode="normal" in="SourceGraphic" in2="effect1_dropShadow_270_159" result="shape"/>
</filter>
<filter id="filter3_d_270_159" x="183.223" y="12.6392" width="37.7236" height="37.3579" filterUnits="userSpaceOnUse" color-interpolation-filters="sRGB">
<feFlood flood-opacity="0" result="BackgroundImageFix"/>
<feColorMatrix in="SourceAlpha" type="matrix" values="0 0 0 0 0 0 0 0 0 0 0 0 0 0 0 0 0 0 127 0" result="hardAlpha"/>
<feOffset dx="5"/>
<feComposite in2="hardAlpha" operator="out"/>
<feColorMatrix type="matrix" values="0 0 0 0 1 0 0 0 0 1 0 0 0 0 1 0 0 0 1 0"/>
<feBlend mode="normal" in2="BackgroundImageFix" result="effect1_dropShadow_270_159"/>
<feBlend mode="normal" in="SourceGraphic" in2="effect1_dropShadow_270_159" result="shape"/>
</filter>
</defs>
</svg>
